<mxfile host="app.diagrams.net" agent="Mozilla/5.0 (X11; Linux x86_64) AppleWebKit/537.36 (KHTML, like Gecko) Chrome/135.0.0.0 Safari/537.36" version="26.2.9">
  <diagram name="Page-1" id="Dopk1gnTmT2kTfZfCHLD">
    <mxGraphModel dx="1188" dy="695" grid="1" gridSize="10" guides="1" tooltips="1" connect="1" arrows="1" fold="1" page="1" pageScale="1" pageWidth="827" pageHeight="1169" math="0" shadow="0">
      <root>
        <mxCell id="0" />
        <mxCell id="1" parent="0" />
        <mxCell id="R4Syxa_mexcD-WkNILK0-26" value="" style="edgeStyle=orthogonalEdgeStyle;rounded=0;orthogonalLoop=1;jettySize=auto;html=1;" edge="1" parent="1" source="R4Syxa_mexcD-WkNILK0-1" target="R4Syxa_mexcD-WkNILK0-25">
          <mxGeometry relative="1" as="geometry" />
        </mxCell>
        <mxCell id="R4Syxa_mexcD-WkNILK0-1" value="Incio" style="ellipse;whiteSpace=wrap;html=1;aspect=fixed;" vertex="1" parent="1">
          <mxGeometry x="374" y="80" width="80" height="80" as="geometry" />
        </mxCell>
        <mxCell id="R4Syxa_mexcD-WkNILK0-28" value="" style="edgeStyle=orthogonalEdgeStyle;rounded=0;orthogonalLoop=1;jettySize=auto;html=1;" edge="1" parent="1" source="R4Syxa_mexcD-WkNILK0-25" target="R4Syxa_mexcD-WkNILK0-27">
          <mxGeometry relative="1" as="geometry" />
        </mxCell>
        <mxCell id="R4Syxa_mexcD-WkNILK0-25" value="Ingrese la base de su triangulo" style="whiteSpace=wrap;html=1;" vertex="1" parent="1">
          <mxGeometry x="354" y="202" width="120" height="60" as="geometry" />
        </mxCell>
        <mxCell id="R4Syxa_mexcD-WkNILK0-30" value="" style="edgeStyle=orthogonalEdgeStyle;rounded=0;orthogonalLoop=1;jettySize=auto;html=1;" edge="1" parent="1" source="R4Syxa_mexcD-WkNILK0-27" target="R4Syxa_mexcD-WkNILK0-29">
          <mxGeometry relative="1" as="geometry" />
        </mxCell>
        <mxCell id="R4Syxa_mexcD-WkNILK0-27" value="Ingrese la altura de su triangulo" style="whiteSpace=wrap;html=1;" vertex="1" parent="1">
          <mxGeometry x="354" y="309" width="120" height="60" as="geometry" />
        </mxCell>
        <mxCell id="R4Syxa_mexcD-WkNILK0-32" value="" style="edgeStyle=orthogonalEdgeStyle;rounded=0;orthogonalLoop=1;jettySize=auto;html=1;" edge="1" parent="1" source="R4Syxa_mexcD-WkNILK0-29" target="R4Syxa_mexcD-WkNILK0-31">
          <mxGeometry relative="1" as="geometry" />
        </mxCell>
        <mxCell id="R4Syxa_mexcD-WkNILK0-29" value="Area=base por altura dividio para 2" style="whiteSpace=wrap;html=1;" vertex="1" parent="1">
          <mxGeometry x="354" y="90" width="120" height="60" as="geometry" />
        </mxCell>
        <mxCell id="R4Syxa_mexcD-WkNILK0-34" value="" style="edgeStyle=orthogonalEdgeStyle;rounded=0;orthogonalLoop=1;jettySize=auto;html=1;" edge="1" parent="1" source="R4Syxa_mexcD-WkNILK0-31" target="R4Syxa_mexcD-WkNILK0-33">
          <mxGeometry relative="1" as="geometry" />
        </mxCell>
        <mxCell id="R4Syxa_mexcD-WkNILK0-31" value="Mostrar area" style="whiteSpace=wrap;html=1;" vertex="1" parent="1">
          <mxGeometry x="354" y="555" width="120" height="60" as="geometry" />
        </mxCell>
        <mxCell id="R4Syxa_mexcD-WkNILK0-33" value="Fin" style="whiteSpace=wrap;html=1;" vertex="1" parent="1">
          <mxGeometry x="354" y="670" width="120" height="60" as="geometry" />
        </mxCell>
      </root>
    </mxGraphModel>
  </diagram>
</mxfile>
